<svg preserveAspectRatio="none" width="100%" height="100%" overflow="visible" style="display: block;" viewBox="0 0 79.2727 15.9568" fill="none" xmlns="http://www.w3.org/2000/svg">
<g id="Vector">
<path d="M7.47832 4.98555H2.54364V0.186316H0V12.0562H2.54364V7.29131H7.47832V12.0562H10.022V0.186316H7.47832V4.98555Z" fill="var(--fill-0, white)"/>
<path d="M17.3146 9.12271L14.8033 3.08606H12.0733L16.1253 12.0218L14.4471 15.9568H16.8891L22.197 3.08606H19.4499L17.3146 9.12271Z" fill="var(--fill-0, white)"/>
<path d="M30.4886 8.91099C30.2961 9.30079 30.0307 9.60326 29.6918 9.81775C29.3522 10.0329 28.9624 10.1402 28.521 10.1402C28.0694 10.1402 27.6734 10.0329 27.3345 9.81775C26.9955 9.60326 26.7295 9.30079 26.5377 8.91099C26.3452 8.5212 26.2497 8.07158 26.2497 7.56286C26.2497 7.05413 26.3452 6.60451 26.5377 6.21472C26.7295 5.82492 26.9955 5.52519 27.3345 5.3162C27.6734 5.10721 28.0694 5.00273 28.521 5.00273C28.9734 5.00273 29.3666 5.10996 29.7 5.32445C30.0335 5.53894 30.2961 5.83938 30.4886 6.22299C30.6804 6.60728 30.7766 7.05413 30.7766 7.56286C30.7766 8.07158 30.6804 8.5212 30.4886 8.91099ZM31.1417 3.51847C30.5367 3.11768 29.8444 2.91694 29.0641 2.91694C28.5561 2.91694 28.0694 3.01251 27.606 3.205C27.1427 3.39749 26.7549 3.64567 26.4442 3.9509C26.3796 4.01484 26.3225 4.08014 26.2682 4.14613L26.2325 3.08606H23.9095V15.7871H26.3342V11.0662C26.3521 11.0855 26.3665 11.1047 26.3851 11.1239C26.713 11.4519 27.1111 11.7145 27.5799 11.9118C28.0494 12.1098 28.5437 12.2088 29.0641 12.2088C29.8444 12.2088 30.5394 12.0087 31.1499 11.6072C31.7604 11.2058 32.2409 10.6544 32.5909 9.95388C32.9415 9.25266 33.1168 8.45588 33.1168 7.56286C33.1168 6.65883 32.9387 5.85862 32.5826 5.16359C32.2265 4.46856 31.7467 3.91995 31.1417 3.51847Z" fill="var(--fill-0, white)"/>
<path d="M38.0941 5.23991C38.4385 5.04742 38.8592 4.95117 39.357 4.95117C39.6966 4.95117 40.0018 5.01922 40.2726 5.15465C40.5442 5.29077 40.7669 5.48259 40.9422 5.73145C41.1175 5.98031 41.2165 6.25735 41.2392 6.56259V6.62997H37.122C37.166 6.43472 37.2251 6.25184 37.3049 6.08754C37.4864 5.71424 37.749 5.4324 38.0941 5.23991ZM42.3667 4.16262C41.9879 3.76183 41.5383 3.45111 41.0185 3.23043C40.4988 3.00975 39.9337 2.89975 39.3232 2.89975C38.6674 2.89975 38.0597 3.01593 37.5001 3.24692C36.9405 3.47929 36.4572 3.80653 36.0502 4.2307C35.6433 4.65487 35.327 5.15466 35.1008 5.73145C34.8747 6.30824 34.7619 6.94137 34.7619 7.6309C34.7619 8.52393 34.9654 9.31521 35.3717 10.0047C35.7794 10.6943 36.3445 11.2367 37.0677 11.6327C37.7909 12.0287 38.6392 12.226 39.6113 12.226C40.0183 12.226 40.4307 12.1751 40.8494 12.0733C41.2674 11.9716 41.6744 11.8217 42.0704 11.6237C42.4657 11.4264 42.8273 11.1803 43.1552 10.8861L42.0023 9.27535C41.6297 9.58059 41.2784 9.79576 40.9512 9.9195C40.6233 10.0446 40.2617 10.1065 39.8657 10.1065C39.2896 10.1065 38.7891 9.99648 38.3649 9.77581C37.9407 9.55513 37.6135 9.24783 37.3818 8.85116C37.2505 8.62705 37.1605 8.37681 37.1034 8.10526H43.4948L43.5113 7.35935C43.534 6.7152 43.444 6.12191 43.2405 5.57881C43.037 5.0364 42.7455 4.56411 42.3667 4.16262Z" fill="var(--fill-0, white)"/>
<path d="M50.7517 2.89975C50.3001 2.89975 49.8676 3.00769 49.4545 3.22149C49.042 3.43667 48.6831 3.73298 48.3779 4.11246C48.2665 4.24995 48.1703 4.3957 48.0816 4.54557L48.039 3.08606H45.7153V12.0562H48.1407V7.41024C48.1407 7.12769 48.1888 6.86714 48.2844 6.62997C48.3806 6.39279 48.5133 6.18655 48.6831 6.01124C48.8529 5.83594 49.053 5.70051 49.2846 5.60427C49.5163 5.50871 49.7687 5.46057 50.0402 5.46057C50.243 5.46057 50.441 5.48602 50.6335 5.53689C50.8253 5.58708 50.9889 5.64689 51.125 5.71426L51.7692 3.06955C51.6448 3.02418 51.4921 2.98432 51.3113 2.95064C51.1305 2.91695 50.9442 2.89975 50.7517 2.89975Z" fill="var(--fill-0, white)"/>
<path d="M56.7547 3.41672C57.0709 3.0943 57.4415 2.84338 57.865 2.66257C58.2891 2.48177 58.7442 2.39102 59.2303 2.39102C59.5919 2.39102 59.9342 2.44466 60.2567 2.55191C60.5784 2.65984 60.8836 2.81175 61.1717 3.00974C61.4604 3.20773 61.7395 3.44218 62.0111 3.71373L63.6053 1.95037C63.2774 1.54339 62.8849 1.19278 62.427 0.898543C61.9685 0.604994 61.4659 0.381551 60.9173 0.228933C60.3694 0.0763144 59.8126 0 59.2475 0C58.3764 0 57.5686 0.152629 56.8227 0.457865C56.0762 0.763101 55.4258 1.19001 54.8724 1.73793C54.3183 2.28653 53.8887 2.93068 53.5834 3.67108C53.2789 4.41149 53.1256 5.2172 53.1256 6.08754C53.1256 6.98056 53.2727 7.80279 53.5669 8.55488C53.8605 9.30697 54.2764 9.95662 54.8133 10.5052C55.3495 11.0531 55.9834 11.4773 56.7121 11.777C57.4415 12.0761 58.241 12.226 59.112 12.226C59.6881 12.226 60.2587 12.1551 60.8245 12.0142C61.3896 11.8726 61.9011 11.678 62.359 11.4292C62.8168 11.1803 63.1812 10.9033 63.4527 10.598L62.2146 8.61398C61.9884 8.85116 61.7313 9.06085 61.4432 9.24165C61.1552 9.42245 60.841 9.56408 60.5021 9.66514C60.1632 9.76757 59.8126 9.81775 59.451 9.81775C58.8969 9.81775 58.3909 9.73045 57.933 9.55515C57.4752 9.38053 57.0826 9.13098 56.7547 8.80924C56.4268 8.48682 56.1724 8.09703 55.9916 7.63918C55.8108 7.18132 55.7201 6.66982 55.7201 6.10472C55.7201 5.55062 55.8136 5.04467 55.9999 4.58681C56.1869 4.12896 56.4378 3.73914 56.7547 3.41672Z" fill="var(--fill-0, white)"/>
<path d="M68.5565 0.186316H66.0128V12.0562H73.9318V9.76756H68.5565V0.186316Z" fill="var(--fill-0, white)"/>
<path d="M76.7298 0.186316V12.0562H79.2727V0.186316H76.7298Z" fill="var(--fill-0, white)"/>
</g>
</svg>
